<svg xmlns="http://www.w3.org/2000/svg" width="53" height="40" fill="none" viewBox="0 0 53 40"><g clip-path="url(#clip0_203_493)"><path fill="#01AA90" fill-rule="evenodd" d="M24.0589 6.97356C24.5975 5.72107 24.9925 4.41165 25.2366 3.07029C22.5873 2.25761 19.7869 2.06335 17.0507 2.50247C19.6448 3.52224 21.5616 4.71092 24.0617 6.97356M6.56649 17.6036C5.20669 17.5043 3.86247 17.2515 2.55945 16.8502C3.05924 14.1235 4.17762 11.5478 5.82861 9.32094C5.53865 12.0955 5.71159 14.342 6.56649 17.6036ZM1.95474 28.628C0.664088 25.9337 -0.00381643 22.9835 0.000509158 19.996C-6.73105e-05 8.95258 8.95249 -0.00170898 19.9982 -0.00170898C26.5077 -0.00170898 32.2897 3.11122 35.941 7.92531C35.0821 8.05444 34.2282 8.20509 33.3792 8.37726C31.7291 6.47551 29.6917 4.94819 27.4035 3.89752C27.0631 5.56125 26.5152 7.17568 25.7727 8.70296C26.1912 9.16183 26.5967 9.63146 26.989 10.1119C24.2767 11.0386 21.6465 12.1903 19.126 13.5551C20.6501 12.29 21.951 10.7781 22.9745 9.08228C19.9192 6.1469 15.5092 3.29339 11.8406 4.38003L17.8497 14.2693C17.1918 14.6498 16.5427 15.0447 15.9024 15.454L9.89272 5.56294C7.23808 8.31789 7.7396 13.5459 8.93635 17.6111C10.9186 17.4838 12.8653 17.0234 14.6947 16.2495C12.318 17.8655 10.0811 19.6781 8.00766 21.6683C7.7594 21.0918 7.5265 20.5092 7.30898 19.9205C5.61398 19.8746 3.93141 19.6164 2.30062 19.152C2.177 21.6799 2.5977 24.2049 3.53427 26.5562C2.99238 27.2318 2.46588 27.9224 1.95474 28.628Z" clip-rule="evenodd"/><path fill="#01AA90" fill-rule="evenodd" d="M29.9936 37.3131C35.6788 34.0272 39.1428 28.3778 39.8564 22.3249C38.1703 27.859 34.2866 31.9657 29.1566 33.6202C18.5859 37.0289 11.7092 29.9106 20.3366 21.4838C26.393 15.5693 34.2399 11.7686 42.3895 9.66621C42.6777 9.68812 42.9613 9.7106 43.2495 9.72904L43.4363 11.8914C43.4382 11.911 43.4476 11.9292 43.4625 11.9422C43.4774 11.9552 43.4967 11.962 43.5164 11.9611L43.8911 11.8741C43.907 11.8705 43.9215 11.8621 43.9324 11.85C43.9433 11.838 43.9503 11.8228 43.9523 11.8066L44.2117 9.73538C44.5417 9.71746 44.8696 9.67098 45.1917 9.59646L46.8484 9.21426L47.2595 13.9142C47.2611 13.9316 47.2662 13.9485 47.2744 13.964C47.2826 13.9794 47.2938 13.9931 47.3073 14.0043C47.3207 14.0154 47.3363 14.0238 47.353 14.0289C47.3697 14.034 47.3873 14.0358 47.4047 14.0341L48.0965 13.8779C48.125 13.8714 48.1506 13.8557 48.1693 13.8332C48.1879 13.8107 48.1986 13.7826 48.1997 13.7534L48.8338 8.75251L51.0543 8.24464C51.8614 8.05671 52.2378 7.80883 52.4344 7.19777C52.4482 7.16627 52.4501 7.13081 52.4396 7.09804C52.4347 7.06322 52.4178 7.03122 52.3918 7.00754C51.9415 6.54636 51.4942 6.48872 50.6912 6.67434L48.4741 7.18797L45.707 2.97456C45.694 2.94824 45.6722 2.92731 45.6453 2.91541C45.6185 2.90351 45.5883 2.90139 45.56 2.90942L44.8683 3.06622C44.835 3.0802 44.8082 3.10633 44.7934 3.13929C44.7787 3.17226 44.777 3.20961 44.7887 3.24377L46.4876 7.64569L44.8308 8.02731C44.5065 8.10097 44.1895 8.20361 43.8837 8.33399L42.7417 6.58614C42.7329 6.57216 42.7201 6.56118 42.705 6.55469C42.6898 6.5482 42.6731 6.5465 42.6569 6.54982L42.2817 6.63687C42.2645 6.64482 42.2509 6.659 42.2437 6.67654C42.2366 6.69408 42.2363 6.71369 42.243 6.73141L43.027 8.76058C42.7388 8.92257 42.4506 9.09147 42.1681 9.25922C34.4294 9.48061 26.8506 11.5145 20.0408 15.1974C13.2311 18.8803 7.38037 24.1095 2.95898 30.4646C8.42103 39.3832 20.3263 42.8939 29.9954 37.3131" clip-rule="evenodd"/></g><defs><clipPath id="clip0_203_493"><rect width="52.454" height="40" fill="#fff"/></clipPath></defs></svg>