<?xml version="1.0" encoding="UTF-8"?>
<svg version="1.1" xmlns="http://www.w3.org/2000/svg" width="1280" height="1280">
<path d="M0 0 C-0.23074219 0.89976562 -0.46148438 1.79953125 -0.69921875 2.7265625 C-3.06312405 12.02606514 -5.24791787 21.35793131 -7.33666992 30.72314453 C-7.53881104 31.62532715 -7.74095215 32.52750977 -7.94921875 33.45703125 C-8.21738403 34.6632312 -8.21738403 34.6632312 -8.4909668 35.89379883 C-9 38 -9 38 -10 41 C-10.82910889 41.15557373 -11.65821777 41.31114746 -12.51245117 41.47143555 C-29.10353059 44.59782317 -45.64881917 47.7667215 -62 52 C-63.05767578 52.27005859 -64.11535156 52.54011719 -65.20507812 52.81835938 C-95.4154351 60.59851384 -124.54439096 71.22096863 -153 84 C-151.0321469 99.79643063 -145.01055868 114.37085287 -139 129 C-138.37450576 130.64564556 -137.74945458 132.29145965 -137.125 133.9375 C-134.22280901 141.17506271 -130.56394781 148.07246797 -127 155 C-126.46366943 156.0516333 -126.46366943 156.0516333 -125.91650391 157.12451172 C-118.38033611 171.86771256 -109.92435989 185.73437265 -100 199 C-97.91718738 201.89342077 -95.83827554 204.78958708 -93.76171875 207.6875 C-92.10276212 209.98217394 -92.10276212 209.98217394 -90.26953125 211.6875 C-89 213 -89 213 -89 215 C-88.01 215.33 -87.02 215.66 -86 216 C-81 221.46511628 -81 221.46511628 -81 224 C-80.40960938 224.25136719 -79.81921875 224.50273438 -79.2109375 224.76171875 C-76.72349193 226.15486406 -75.41929277 227.60964761 -73.625 229.8125 C-70.64537829 233.33965903 -67.59124558 236.11138942 -64 239 C-62.33333333 240.66666667 -60.66666667 242.33333333 -59 244 C-57.7625 244.99 -57.7625 244.99 -56.5 246 C-54 248 -54 248 -51.73046875 250.3203125 C-48.91712136 253.08133726 -45.95025528 255.50306498 -42.8125 257.875 C-42.23862549 258.31134766 -41.66475098 258.74769531 -41.07348633 259.19726562 C-20.33058209 274.8880407 2.04561684 287.89102671 26 298 C27.10214844 298.47179687 28.20429687 298.94359375 29.33984375 299.4296875 C32.21623622 300.64676815 35.10602993 301.82545985 38 303 C38.89332031 303.38542969 39.78664063 303.77085937 40.70703125 304.16796875 C57.98894984 311.31671419 76.74963469 315.14531824 95 319 C96.009132 319.2339724 96.009132 319.2339724 97.03865051 319.47267151 C102.28669538 320.68779474 107.51052523 321.59884413 112.8515625 322.2890625 C113.68776123 322.39757538 114.52395996 322.50608826 115.38549805 322.6178894 C149.39156013 326.92240984 184.32938537 328.80430779 218.33740234 323.41894531 C221.00866504 322.9986366 223.68281512 322.62991642 226.36328125 322.2734375 C246.94554154 319.47440464 267.21130256 314.58686174 286.8125 307.69921875 C289 307 289 307 291 307 C290.98428955 306.07477539 290.9685791 305.14955078 290.95239258 304.19628906 C290.44716657 269.87502872 290.44716657 269.87502872 294 253 C294.1551709 252.21753906 294.3103418 251.43507813 294.47021484 250.62890625 C298.52184123 230.24274126 305.17227654 210.23730241 317 193 C317.66079959 191.84174454 318.30840455 190.67577665 318.9375 189.5 C325.18432189 178.40924419 333.91936949 168.82839077 343 160 C343.845625 159.154375 344.69125 158.30875 345.5625 157.4375 C346.366875 156.633125 347.17125 155.82875 348 155 C348.721875 154.236875 349.44375 153.47375 350.1875 152.6875 C352 151 352 151 354 151 C354.33 150.01 354.66 149.02 355 148 C357.05128951 146.33110406 359.07983458 144.81112521 361.25 143.3125 C361.88115723 142.87115723 362.51231445 142.42981445 363.16259766 141.97509766 C380.51960758 129.95136832 398.0240239 121.58233128 418 115 C419.78160369 114.40339891 421.56284903 113.80572673 423.34375 113.20703125 C427.23310082 111.90228715 431.12526372 110.60639966 435.01953125 109.31640625 C440.37429826 107.54205027 445.72487293 105.75545264 451.07421875 103.96484375 C453.48278939 103.15933652 455.89141025 102.35397961 458.30004883 101.54867554 C459.86857173 101.02395659 461.43693615 100.49876363 463.00512695 99.97305298 C471.23480916 97.21481733 479.47290959 94.52548496 487.77783203 92.00048828 C493.23987576 90.30451501 498.65684569 88.47318779 504.07659912 86.64758301 C509.18160472 84.92879681 514.29113445 83.2234323 519.3996582 81.51513672 C520.68401405 81.08532421 521.96819146 80.65497817 523.25219727 80.22412109 C530.15724319 77.9076457 537.06204962 75.62300702 544.06030273 73.60083008 C546.16617957 72.98645103 546.16617957 72.98645103 548.75 71.8125 C551.57478942 70.79243715 554.01658386 70.94701583 557 71 C557.0458405 111.96928748 557.08105117 152.93857161 557.10213066 193.90787964 C557.10463188 198.75157475 557.10722055 203.59526981 557.10986328 208.43896484 C557.11065021 209.88532124 557.11065021 209.88532124 557.11145304 211.36089696 C557.12014077 226.94600647 557.13590171 242.53110114 557.15430559 258.11620186 C557.17305014 274.12404352 557.18412633 290.13187744 557.18817699 306.13972962 C557.19091262 316.00664686 557.19953318 325.87352212 557.21583293 335.74042644 C557.22645611 342.51895141 557.22958863 349.29745488 557.22700275 356.07598756 C557.22572971 359.97890978 557.22759386 363.88175895 557.23841095 367.78466797 C557.33908883 406.01683221 557.33908883 406.01683221 552.75 423.125 C552.53384033 423.95427002 552.31768066 424.78354004 552.0949707 425.63793945 C544.75469859 452.92386364 531.32195468 476.64220912 513 498 C512.15953125 498.98355469 511.3190625 499.96710938 510.453125 500.98046875 C493.96363713 519.77279889 472.50514487 533.19846816 450.16943359 543.94775391 C447.95315109 545.02272325 445.75193836 546.12489729 443.55078125 547.23046875 C412.32727466 562.72184768 379.38875838 574.16884158 345.6875 582.875 C344.96087158 583.06277008 344.23424316 583.25054016 343.4855957 583.44400024 C333.71357017 585.95268481 323.91497347 588.11900562 314 590 C312.71971924 590.2460498 311.43943848 590.49209961 310.12036133 590.74560547 C281.27072109 596.26107629 252.49998718 599.63673133 223.21697998 601.8314209 C221.1273882 601.9903134 219.03851381 602.1563341 216.94970703 602.32519531 C178.99579693 605.33172912 140.44511825 605.34846093 102.49609375 602.27783203 C98.9780148 601.99825285 95.45910072 601.75797138 91.9375 601.52734375 C80.53863637 600.75825988 69.29609155 599.65050807 58.0234375 597.78125 C54.48938371 597.20253512 50.94973073 596.74121863 47.39399719 596.31613159 C38.9289907 595.30313024 30.56598534 593.96647715 22.1875 592.375 C21.51590851 592.247836 20.84431702 592.120672 20.15237427 591.98965454 C-20.90652456 584.17970365 -61.12625772 573.53044115 -100 558 C-101.37466858 557.47049297 -102.74969888 556.94192446 -104.125 556.4140625 C-125.81428167 548.00823442 -147.29093297 538.49177598 -167.67626953 527.27148438 C-170.23051358 525.87386901 -172.79966096 524.50634254 -175.37109375 523.140625 C-187.60421566 516.61032178 -199.40511143 509.60225427 -211 502 C-211.86544434 501.43490723 -212.73088867 500.86981445 -213.62255859 500.28759766 C-224.99304952 492.84632752 -236.16551872 485.20360552 -247 477 C-247.56654297 476.57235352 -248.13308594 476.14470703 -248.71679688 475.70410156 C-258.98888225 467.93238061 -268.98930953 459.90895837 -278.49609375 451.2109375 C-281.92497969 448.18324726 -285.52588841 445.39951575 -289.1640625 442.62890625 C-290.07285156 441.82259766 -290.07285156 441.82259766 -291 441 C-291 440.34 -291 439.68 -291 439 C-291.58789307 438.73807861 -292.17578613 438.47615723 -292.78149414 438.20629883 C-295.11909667 436.93524192 -296.63652604 435.59262044 -298.49609375 433.69921875 C-299.13740234 433.05146484 -299.77871094 432.40371094 -300.43945312 431.73632812 C-301.09880859 431.06021484 -301.75816406 430.38410156 -302.4375 429.6875 C-303.09298828 429.02298828 -303.74847656 428.35847656 -304.42382812 427.67382812 C-305.70921041 426.37039634 -306.992779 425.06517316 -308.27441406 423.75805664 C-311.65858179 420.31020834 -315.09016072 416.91050392 -318.5234375 413.51171875 C-324.90520932 407.18425988 -331.22464043 400.89276609 -337 394 C-337.93089756 392.91937041 -338.863345 391.84007505 -339.796875 390.76171875 C-357.0571933 370.80115826 -372.82261683 349.65847106 -387.25 327.5625 C-387.72832275 326.83426025 -388.20664551 326.10602051 -388.69946289 325.35571289 C-392 320.24174768 -392 320.24174768 -392 318 C-392.66 318 -393.32 318 -394 318 C-394.28069336 318.87599854 -394.56138672 319.75199707 -394.85058594 320.65454102 C-395.89714853 323.70064279 -397.07512356 326.5895791 -398.390625 329.52734375 C-399.07946777 331.07494385 -399.07946777 331.07494385 -399.78222656 332.65380859 C-400.2665918 333.73742676 -400.75095703 334.82104492 -401.25 335.9375 C-405.36463549 345.22409629 -409.37779061 354.50837482 -413 364 C-413.25668457 364.66467285 -413.51336914 365.3293457 -413.77783203 366.01416016 C-422.87526141 389.65447249 -430.00727031 413.83655945 -436.29492188 438.34985352 C-436.80072434 440.25099123 -437.37789384 442.13368152 -438 444 C-438.66 444 -439.32 444 -440 444 C-441.11848267 383.78834969 -425.62690527 323.14109599 -402 268 C-401.47889648 266.78062744 -401.47889648 266.78062744 -400.94726562 265.53662109 C-392.38115949 245.65541156 -382.54377044 225.82025043 -370.2890625 207.9296875 C-368.78960409 205.6850437 -367.49432272 203.34172881 -366.16796875 200.9921875 C-361.13346987 192.40491516 -355.42756342 184.94569449 -348.60546875 177.75390625 C-346.42062006 175.44458342 -344.31858368 173.10007288 -342.25 170.6875 C-339.52903711 167.54443069 -336.64771341 164.62350914 -333.6796875 161.71484375 C-332.04072708 160.04157951 -330.55147639 158.30689297 -329.0625 156.5 C-326.31447755 153.22576049 -323.25574668 150.51437289 -320.00390625 147.75 C-318.08033286 146.07015423 -316.28686504 144.32349781 -314.5 142.5 C-310.83744094 138.78816885 -306.96672903 135.38222756 -303 132 C-302.51724609 131.5870166 -302.03449219 131.1740332 -301.53710938 130.74853516 C-278.17215652 110.77596602 -253.47919862 92.76712298 -227.25 76.75 C-226.30390869 76.1715332 -225.35781738 75.59306641 -224.38305664 74.99707031 C-218.01978768 71.1400066 -211.56009914 67.51057268 -205 64 C-203.84226074 63.37569092 -203.84226074 63.37569092 -202.66113281 62.73876953 C-191.6010279 56.79098803 -180.40488879 51.20831684 -169.00927734 45.93261719 C-167.31042224 45.1440842 -165.61741729 44.34296577 -163.92578125 43.5390625 C-157.52774036 40.53609563 -150.96263775 38.05420428 -144.3359375 35.61328125 C-138.98603133 33.63742182 -133.68103107 31.54736161 -128.37866211 29.44775391 C-123.30524749 27.4552305 -118.18656634 25.67472956 -113 24 C-112.2685376 23.7635376 -111.5370752 23.5270752 -110.78344727 23.28344727 C-84.53405274 14.85490144 -58.43239913 8.05076553 -31.23095703 3.38818359 C-28.92107345 2.98626688 -26.61492261 2.56633349 -24.30859375 2.14453125 C-16.14144391 0.67876283 -8.33806678 -0.49587622 0 0 Z " fill="#6A103A" transform="translate(580,652)"/>
<path d="M0 0 C3.05232492 0.61607824 6.09302027 1.10173683 9.17675781 1.52880859 C44.83612267 6.90567302 81.70160934 16.49500422 115.11425781 30.02099609 C118.46135262 31.36956759 121.8382015 32.5657618 125.25805664 33.71508789 C137.5957306 37.87284422 149.39875951 43.2663337 161.23925781 48.65380859 C162.12500488 49.05535156 163.01075195 49.45689453 163.92333984 49.87060547 C175.02939231 54.9315914 185.72584978 60.54406481 196.33251953 66.57714844 C198.80312232 67.97220072 201.30055113 69.31455011 203.80175781 70.65380859 C215.99542354 77.30150385 227.8503828 84.44699384 239.29296875 92.31787109 C240.63628902 93.23992936 241.98355679 94.15625377 243.33398438 95.06787109 C251.15130101 100.34764792 258.72878838 105.76276843 265.73925781 112.09130859 C266.28533691 112.57519043 266.83141602 113.05907227 267.39404297 113.55761719 C270.49668854 116.46048265 271.93233202 118.40363257 272.23925781 122.65380859 C271.19458008 124.62329102 271.19458008 124.62329102 269.55566406 126.50927734 C268.96197021 127.20859375 268.36827637 127.90791016 267.7565918 128.62841797 C266.78894897 129.72379883 266.78894897 129.72379883 265.80175781 130.84130859 C264.49151519 132.37616887 263.18161679 133.91132307 261.87207031 135.44677734 C261.23817383 136.17944824 260.60427734 136.91211914 259.95117188 137.66699219 C253.77069763 144.83993848 248.11119282 152.43641369 242.38549805 159.97167969 C237.92339977 165.81838918 233.32608679 171.54368424 228.64086914 177.21289062 C226.12244582 180.27301862 223.73288876 183.34606446 221.48925781 186.61474609 C220.74675781 187.61763672 220.00425781 188.62052734 219.23925781 189.65380859 C218.57925781 189.65380859 217.91925781 189.65380859 217.23925781 189.65380859 C217.00851562 190.36021484 216.77777344 191.06662109 216.54003906 191.79443359 C215.00120603 195.17709359 212.87448771 197.66271297 210.42675781 200.40380859 C206.03702568 205.44958699 201.89320461 210.62847156 197.86425781 215.96630859 C193.5288649 221.70034033 189.10771278 227.34326925 184.55175781 232.90380859 C175.00347932 244.48464513 175.00347932 244.48464513 166.23925781 256.65380859 C165.57925781 256.65380859 164.91925781 256.65380859 164.23925781 256.65380859 C163.89314453 257.71341797 163.89314453 257.71341797 163.54003906 258.79443359 C162.00120858 262.17708799 159.87451038 264.66273921 157.42675781 267.40380859 C153.05512367 272.42780604 148.93383043 277.58504199 144.92675781 282.90380859 C139.84064962 289.6430546 134.55634402 296.18196004 129.14526367 302.66235352 C125.07093094 307.56714556 121.292168 312.5785726 117.69238281 317.84521484 C117.21285156 318.44205078 116.73332031 319.03888672 116.23925781 319.65380859 C115.57925781 319.65380859 114.91925781 319.65380859 114.23925781 319.65380859 C114.01238281 320.17845703 113.78550781 320.70310547 113.55175781 321.24365234 C111.78143478 324.49451339 109.52199508 327.31723226 107.23925781 330.21630859 C104.81813902 333.31188191 102.42108052 336.38107454 100.23925781 339.65380859 C91.59757659 338.22356519 84.99138486 332.84365347 78.08691406 327.74365234 C61.92986774 315.88628639 44.23843074 306.38549116 26.23925781 297.65380859 C25.60463623 297.32453369 24.97001465 296.99525879 24.31616211 296.65600586 C19.55268233 294.19278155 14.75689171 292.29694631 9.67675781 290.59130859 C5.63186908 289.21874059 1.66206896 287.83920229 -2.25292969 286.12255859 C-6.21880921 284.46201216 -10.17482845 283.31624981 -14.32324219 282.21630859 C-15.93281633 281.78215038 -17.54218981 281.34724759 -19.15136719 280.91162109 C-19.93833984 280.69924805 -20.7253125 280.486875 -21.53613281 280.26806641 C-24.56555641 279.43158377 -27.56629879 278.50490144 -30.57324219 277.59130859 C-87.49404674 261.55818604 -152.7064172 263.51610011 -209.76074219 277.65380859 C-210.96907715 277.95303223 -212.17741211 278.25225586 -213.42236328 278.56054688 C-234.19236109 283.80681582 -254.88245971 290.03526426 -273.85839844 300.14599609 C-276.48307697 301.50955721 -279.14154316 302.65573905 -281.8659668 303.80078125 C-285.52896954 305.44986405 -289.00966015 307.43955065 -292.51074219 309.40380859 C-293.30569092 309.84845459 -294.10063965 310.29310059 -294.91967773 310.7512207 C-301.00726085 314.18055712 -306.95878215 317.75709843 -312.76074219 321.65380859 C-314.29408203 322.68248047 -314.29408203 322.68248047 -315.85839844 323.73193359 C-325.22276511 330.11622172 -334.4327342 336.78586678 -342.94824219 344.27880859 C-345.76074219 346.65380859 -345.76074219 346.65380859 -347.76074219 346.65380859 C-348.01082031 347.23904297 -348.26089844 347.82427734 -348.51855469 348.42724609 C-349.9255036 350.94913565 -351.44787023 352.40466922 -353.63574219 354.27880859 C-354.6528125 355.16439453 -354.6528125 355.16439453 -355.69042969 356.06787109 C-357.64824935 357.56763483 -359.5659454 358.5564102 -361.76074219 359.65380859 C-362.81095322 361.50352556 -362.81095322 361.50352556 -363.76074219 363.65380859 C-367.10214603 368.14742066 -370.98292743 371.96457911 -375.03417969 375.81396484 C-378.29838975 379.21379394 -381.11257698 382.8327486 -383.94824219 386.59130859 C-384.51486572 387.33912598 -385.08148926 388.08694336 -385.6652832 388.85742188 C-387.37104514 391.11753844 -389.06801172 393.38391943 -390.76074219 395.65380859 C-391.24865234 396.30720215 -391.7365625 396.9605957 -392.23925781 397.63378906 C-398.16419871 405.6140224 -403.30876348 413.74985118 -407.76074219 422.65380859 C-408.42074219 422.65380859 -409.08074219 422.65380859 -409.76074219 422.65380859 C-410.01597656 423.49169922 -410.27121094 424.32958984 -410.53417969 425.19287109 C-411.87843136 428.98588697 -413.55088412 432.4560565 -415.38574219 436.02880859 C-415.71058594 436.66947266 -416.03542969 437.31013672 -416.37011719 437.97021484 C-417.16331626 439.5332836 -417.9615125 441.09381481 -418.76074219 442.65380859 C-385.02408311 455.64904736 -351.20139849 465.97057617 -315.57470703 472.20849609 C-310.23518753 473.15432637 -305.00496292 474.27213451 -299.76074219 475.65380859 C-298.85297697 479.0338991 -297.95013432 482.41522789 -297.05371094 485.79833984 C-296.09201003 489.42486562 -295.11004471 493.04554316 -294.12402344 496.66552734 C-293.56513091 498.74487414 -293.00653642 500.82430108 -292.44824219 502.90380859 C-292.16964355 503.91580322 -291.89104492 504.92779785 -291.60400391 505.97045898 C-291.35021973 506.92299561 -291.09643555 507.87553223 -290.83496094 508.85693359 C-290.60381592 509.70932617 -290.3726709 510.56171875 -290.13452148 511.43994141 C-289.76074219 513.65380859 -289.76074219 513.65380859 -290.76074219 516.65380859 C-295.66917999 516.00542997 -300.57627698 515.34787987 -305.48242188 514.68237305 C-307.14615852 514.45793889 -308.81021605 514.23586867 -310.47460938 514.01635742 C-319.13844856 512.87212595 -327.60809496 511.63562819 -336.05932617 509.34960938 C-338.80939227 508.64127784 -341.54478504 508.11651151 -344.34277344 507.63427734 C-349.79247226 506.68552856 -355.10425229 505.38728117 -360.44824219 503.96630859 C-361.43373047 503.70575684 -362.41921875 503.44520508 -363.43457031 503.17675781 C-411.60214885 490.32750022 -459.47959833 473.13966927 -502.24121094 447.14599609 C-504.81843146 445.61964223 -507.43279598 444.19265099 -510.07324219 442.77880859 C-526.55358399 433.85677222 -542.00822616 423.15302229 -557.01025391 411.95898438 C-558.66421219 410.725782 -560.32304971 409.49948019 -561.98339844 408.27490234 C-582.6226862 392.96188239 -601.67206651 375.79237972 -619.88949585 357.70028687 C-620.9967263 356.60112389 -622.10543047 355.50344311 -623.21572876 354.40737915 C-629.24083846 348.451365 -634.90917255 342.4710691 -640.09472656 335.75 C-641.83948983 333.47169815 -641.83948983 333.47169815 -644.45996094 330.96630859 C-647.29943999 328.112367 -649.39011358 325.02128012 -651.57324219 321.65380859 C-652.00411133 320.99807861 -652.43498047 320.34234863 -652.87890625 319.66674805 C-656.96945176 313.40791153 -660.89050112 307.05104003 -664.76074219 300.65380859 C-665.2828125 299.81591797 -665.80488281 298.97802734 -666.34277344 298.11474609 C-670.24637695 291.7907024 -673.56188953 285.21454609 -676.82666016 278.54541016 C-677.77064676 276.63375093 -678.7332635 274.73264574 -679.70214844 272.83349609 C-684.74708135 262.92478133 -689.39198937 252.87841187 -693.76074219 242.65380859 C-694.08010742 241.91275879 -694.39947266 241.17170898 -694.72851562 240.40820312 C-699.43387452 229.39957411 -703.34478148 218.16831529 -707.01074219 206.77880859 C-707.21938904 206.13094391 -707.42803589 205.48307922 -707.64300537 204.81558228 C-711.59343763 192.50041343 -715.30647141 180.1237282 -718.26074219 167.52880859 C-718.47013428 166.63685791 -718.67952637 165.74490723 -718.89526367 164.82592773 C-726.06684603 133.92520541 -730.0616399 103.39157361 -729.76074219 71.65380859 C-728.77074219 71.15880859 -728.77074219 71.15880859 -727.76074219 70.65380859 C-727.50550781 71.62314331 -727.50550781 71.62314331 -727.24511719 72.61206055 C-718.3404895 106.32116807 -708.36232544 139.50302248 -694.76074219 171.65380859 C-694.32536133 172.68328613 -693.88998047 173.71276367 -693.44140625 174.7734375 C-687.08982684 189.67153127 -680.16406299 204.05024298 -672.17626953 218.13891602 C-670.13248831 221.76999404 -668.14477356 225.43097561 -666.15625 229.0925293 C-664.04906677 232.95999943 -661.90688019 236.80785333 -659.76074219 240.65380859 C-659.22835937 239.98607422 -658.69597656 239.31833984 -658.14746094 238.63037109 C-653.57563217 232.92867957 -648.95431777 227.26701679 -644.34130859 221.59863281 C-643.01326079 219.96452271 -641.68925824 218.32712619 -640.36621094 216.68896484 C-632.16907416 206.57561427 -623.85276385 196.45191429 -614.49511719 187.38427734 C-612.77416417 185.66720035 -611.20653304 183.88343047 -609.63574219 182.02880859 C-602.39804784 173.6264278 -594.35234186 165.66251717 -585.88964844 158.49755859 C-582.34279893 155.42579168 -578.93080854 152.20606449 -575.50268555 149.00292969 C-565.44968499 139.65380859 -565.44968499 139.65380859 -562.76074219 139.65380859 C-562.76074219 138.99380859 -562.76074219 138.33380859 -562.76074219 137.65380859 C-560.83962013 135.98595343 -558.90987121 134.43894119 -556.88574219 132.90380859 C-555.59396673 131.9091582 -554.30230557 130.91435935 -553.01074219 129.91943359 C-552.31980469 129.39027344 -551.62886719 128.86111328 -550.91699219 128.31591797 C-548.72642478 126.62735559 -546.5542712 124.91743572 -544.38574219 123.20068359 C-530.08746992 111.90731311 -515.175823 101.75978329 -499.81933594 91.96826172 C-497.87890474 90.72925774 -495.94468759 89.48102518 -494.01074219 88.23193359 C-477.49152992 77.64985435 -460.25336089 68.1001384 -442.59814453 59.55273438 C-440.70099848 58.62457974 -438.81778048 57.67232459 -436.93652344 56.71240234 C-423.16190058 49.69335461 -409.17152899 43.1018015 -394.63012695 37.82348633 C-389.75624578 36.05244858 -384.97738072 34.10281049 -380.19824219 32.09130859 C-372.49699028 28.87244309 -364.72352483 26.15865744 -356.76074219 23.65380859 C-355.69597656 23.31736328 -354.63121094 22.98091797 -353.53417969 22.63427734 C-350.28191231 21.62147447 -347.02241431 20.63591246 -343.76074219 19.65380859 C-342.52670654 19.2813501 -341.2926709 18.9088916 -340.02124023 18.52514648 C-329.72697781 15.44394887 -319.37753226 12.67576901 -308.94824219 10.09130859 C-308.16060486 9.89549194 -307.37296753 9.69967529 -306.5614624 9.4979248 C-294.68306264 6.55107035 -282.81861311 3.77085627 -270.76074219 1.65380859 C-269.70419434 1.46367188 -268.64764648 1.27353516 -267.55908203 1.07763672 C-181.20383191 -14.367431 -86.25754631 -18.2141731 0 0 Z " fill="#7B1945" transform="translate(869.7607421875,36.34619140625)"/>
<path d="M0 0 C0.0458405 40.96928748 0.08105117 81.93857161 0.10213066 122.90787964 C0.10463188 127.75157475 0.10722055 132.59526981 0.10986328 137.43896484 C0.11065021 138.88532124 0.11065021 138.88532124 0.11145304 140.36089696 C0.12014077 155.94600647 0.13590171 171.53110114 0.15430559 187.11620186 C0.17305014 203.12404352 0.18412633 219.13187744 0.18817699 235.13972962 C0.19091262 245.00664686 0.19953318 254.87352212 0.21583293 264.74042644 C0.22645611 271.51895141 0.22958863 278.29745488 0.22700275 285.07598756 C0.22572971 288.97890978 0.22759386 292.88175895 0.23841095 296.78466797 C0.33908883 335.01683221 0.33908883 335.01683221 -4.25 352.125 C-4.46615967 352.95427002 -4.68231934 353.78354004 -4.9050293 354.63793945 C-12.24530141 381.92386364 -25.67804532 405.64220912 -44 427 C-44.84046875 427.98355469 -45.6809375 428.96710938 -46.546875 429.98046875 C-63.03636287 448.77279889 -84.49485513 462.19846816 -106.83056641 472.94775391 C-109.04684891 474.02272325 -111.24806164 475.12489729 -113.44921875 476.23046875 C-144.67272534 491.72184768 -177.61124162 503.16884158 -211.3125 511.875 C-212.03912842 512.06277008 -212.76575684 512.25054016 -213.5144043 512.44400024 C-223.28642983 514.95268481 -233.08502653 517.11900562 -243 519 C-244.28028076 519.2460498 -245.56056152 519.49209961 -246.87963867 519.74560547 C-275.72927891 525.26107629 -304.50001282 528.63673133 -333.78302002 530.8314209 C-335.8726118 530.9903134 -337.96148619 531.1563341 -340.05029297 531.32519531 C-380.74415161 534.54877521 -424.55899277 536.60139971 -465 530 C-465 529.34 -465 528.68 -465 528 C-463.69518677 527.89510254 -463.69518677 527.89510254 -462.36401367 527.78808594 C-432.22563399 525.3115588 -405.8774841 520.56324584 -379 506 C-377.93136719 505.42378906 -376.86273437 504.84757812 -375.76171875 504.25390625 C-369.203042 500.57049895 -363.29841936 496.3605685 -357.3984375 491.72265625 C-355 490 -355 490 -353 490 C-352.67 489.01 -352.34 488.02 -352 487 C-350.3984375 485.421875 -350.3984375 485.421875 -348.375 483.75 C-341.92196662 478.25169348 -336.48579545 472.58350452 -331.48046875 465.72265625 C-330.74763672 464.86994141 -330.74763672 464.86994141 -330 464 C-329.34 464 -328.68 464 -328 464 C-327.7525 463.278125 -327.505 462.55625 -327.25 461.8125 C-325.87321977 458.71474447 -324.11751507 456.64689383 -322 454 C-311.2820272 438.19487344 -301.67856665 420.90630188 -295 403 C-294.49540102 401.6820582 -293.99014273 400.36436872 -293.484375 399.046875 C-291.09628603 392.78648381 -288.76488541 386.51341554 -286.71484375 380.1328125 C-285.57649124 376.73641647 -284.26528808 373.4036911 -282.96484375 370.06640625 C-281.88769266 366.6430718 -281.2201073 363.23758997 -280.54711914 359.71606445 C-280.00470563 357.02336019 -279.37252609 354.37080601 -278.703125 351.70703125 C-269.97231788 316.61219724 -265.89234372 281.10890843 -265.99609375 244.97265625 C-265.99931641 243.72200378 -266.00253906 242.47135132 -266.00585938 241.18280029 C-266.02748496 234.9038731 -266.07384487 228.62651288 -266.16064453 222.34814453 C-266.3070779 208.59878496 -265.68150925 195.50025477 -263 182 C-262.83608261 181.17398788 -262.67216522 180.34797577 -262.50328064 179.49693298 C-258.40441891 159.1498962 -251.81529175 139.21918487 -240 122 C-239.33920041 120.84174454 -238.69159545 119.67577665 -238.0625 118.5 C-231.81567811 107.40924419 -223.08063051 97.82839077 -214 89 C-213.154375 88.154375 -212.30875 87.30875 -211.4375 86.4375 C-210.2309375 85.2309375 -210.2309375 85.2309375 -209 84 C-207.9171875 82.8553125 -207.9171875 82.8553125 -206.8125 81.6875 C-205 80 -205 80 -203 80 C-202.67 79.01 -202.34 78.02 -202 77 C-199.94871049 75.33110406 -197.92016542 73.81112521 -195.75 72.3125 C-195.11884277 71.87115723 -194.48768555 71.42981445 -193.83740234 70.97509766 C-176.48039242 58.95136832 -158.9759761 50.58233128 -139 44 C-137.21839631 43.40339891 -135.43715097 42.80572673 -133.65625 42.20703125 C-129.76689918 40.90228715 -125.87473628 39.60639966 -121.98046875 38.31640625 C-116.62570174 36.54205027 -111.27512707 34.75545264 -105.92578125 32.96484375 C-103.51721061 32.15933652 -101.10858975 31.35397961 -98.69995117 30.54867554 C-97.13142827 30.02395659 -95.56306385 29.49876363 -93.99487305 28.97305298 C-85.76519084 26.21481733 -77.52709041 23.52548496 -69.22216797 21.00048828 C-63.76012424 19.30451501 -58.34315431 17.47318779 -52.92340088 15.64758301 C-47.81839528 13.92879681 -42.70886555 12.2234323 -37.6003418 10.51513672 C-36.31598595 10.08532421 -35.03180854 9.65497817 -33.74780273 9.22412109 C-26.84275681 6.9076457 -19.93795038 4.62300702 -12.93969727 2.60083008 C-10.83382043 1.98645103 -10.83382043 1.98645103 -8.25 0.8125 C-5.42521058 -0.20756285 -2.98341614 -0.05298417 0 0 Z " fill="#5C5D60" transform="translate(1137,723)"/>
<path d="M0 0 C1.08023438 -0.01095703 2.16046875 -0.02191406 3.2734375 -0.03320312 C9.32825911 0.02286004 12.50494679 0.1627964 17 4.5625 C18.58642578 6.99414063 18.58642578 6.99414063 19.9453125 9.71875 C20.4594873 10.73155029 20.97366211 11.74435059 21.50341797 12.7878418 C22.30610107 14.40879761 22.30610107 14.40879761 23.125 16.0625 C24.27398302 18.33047119 25.4250542 20.59738561 26.578125 22.86328125 C27.15111328 23.99330566 27.72410156 25.12333008 28.31445312 26.28759766 C30.73800183 30.9963871 33.29434189 35.62598169 35.875 40.25 C39.47261966 46.72037429 42.8680307 53.23594388 46.12890625 59.8828125 C48.42578206 64.47656412 50.94327212 68.94890389 53.4375 73.4375 C57.12304979 80.07597886 60.66349004 86.75404136 64.01806641 93.56518555 C67.75491815 101.13802229 71.72490524 108.58561259 75.67480469 116.04882812 C77.023182 118.60647235 78.3608854 121.16942716 79.6953125 123.734375 C84.69995684 133.34851312 89.80921456 142.88943008 95.0703125 152.36572266 C98.32679878 158.26104519 101.4141322 164.22216422 104.36401367 170.27661133 C105.88175388 173.38308484 107.4715208 176.40771385 109.22265625 179.38671875 C111 182.5625 111 182.5625 111 184.5625 C111.66 184.2325 112.32 183.9025 113 183.5625 C114.89505904 183.44245389 116.79421989 183.38516761 118.69287109 183.35717773 C119.88947357 183.33723251 121.08607605 183.31728729 122.31893921 183.29673767 C123.62392365 183.28002518 124.92890808 183.26331268 126.2734375 183.24609375 C127.63514779 183.22548129 128.9968523 183.20448383 130.35855103 183.18312073 C133.22858322 183.13907812 136.09863671 183.09820474 138.96875 183.05981445 C142.58608436 183.01140061 146.2033116 182.95767096 149.82053852 182.90185547 C162.37045086 182.70862625 174.92114326 182.52760288 187.47265625 182.49609375 C188.22529755 182.49250351 188.97793884 182.48891327 189.75338745 182.48521423 C214.9533778 182.495487 239.8948812 190.1085654 260 205.5625 C261.37157621 206.54645684 262.74624987 207.52612094 264.125 208.5 C265.07375 209.180625 266.0225 209.86125 267 210.5625 C266.70103003 213.63563321 265.9989019 214.56352539 263.69921875 216.7109375 C257.58859326 221.22852055 251.61671655 225.05104822 244.69140625 228.2734375 C241.9893404 229.51064127 241.9893404 229.51064127 239.53515625 231.07421875 C222.35189856 241.16177064 201.13292483 242.16354269 181.80078125 241.953125 C179.74285947 241.94564035 177.68493044 241.93995798 175.6269989 241.93597412 C170.27915856 241.92089259 164.93177107 241.88176729 159.58410645 241.8371582 C154.09975302 241.79582245 148.61532454 241.77788233 143.13085938 241.7578125 C132.42037681 241.71525139 121.71022644 241.64721935 111 241.5625 C110.60404633 242.3296785 110.20809265 243.09685699 109.80014038 243.88728333 C108.30586171 246.78079132 106.81026172 249.67360873 105.31381226 252.56599426 C104.6710026 253.80907455 104.02869435 255.05241427 103.38693237 256.29603577 C99.57727211 263.67755465 95.7101935 271.0164813 91.625 278.25 C88.30398123 284.1548994 85.16563084 290.1119093 82.16943359 296.18774414 C74.87569518 310.95333643 67.09742186 325.46891731 59.16259766 339.89794922 C56.37351538 344.98642757 53.67611904 350.1007625 51.125 355.3125 C49.24942603 359.13595922 47.30322132 362.81649435 45.0625 366.4375 C42.62750098 370.395967 40.49135109 374.45948728 38.4375 378.625 C34.80991919 385.97982043 31.08357919 393.28017784 27.3125 400.5625 C26.76585693 401.62476807 26.21921387 402.68703613 25.65600586 403.78149414 C16.95637722 420.54696858 16.95637722 420.54696858 13 423.5625 C8.71796716 424.2120064 4.38818556 424.02562334 0.0625 424 C-1.13052734 424.01998047 -2.32355469 424.03996094 -3.55273438 424.06054688 C-4.69935547 424.05990234 -5.84597656 424.05925781 -7.02734375 424.05859375 C-8.07656006 424.06044678 -9.12577637 424.0622998 -10.20678711 424.06420898 C-13.69181398 423.43823833 -14.87143885 422.34542336 -17 419.5625 C-17.89585968 413.39960325 -15.78967903 408.15758166 -13.75 402.4375 C-13.09798453 400.5459083 -12.4469378 398.65398239 -11.796875 396.76171875 C-11.48298828 395.85728027 -11.16910156 394.9528418 -10.84570312 394.02099609 C-8.48024489 387.1445052 -6.45712201 380.1632846 -4.44921875 373.17578125 C-1.33535064 362.35863105 1.87531814 351.60658574 5.51489258 340.953125 C7.82038205 334.19870154 9.91856535 327.38892877 12 320.5625 C20.73665567 292.16491391 20.73665567 292.16491391 24.96484375 279.65234375 C28.50915209 269.07291772 31.54201907 258.33174562 34.62646484 247.61157227 C34.91859863 246.60151123 35.21073242 245.5914502 35.51171875 244.55078125 C35.90556763 243.18240112 35.90556763 243.18240112 36.30737305 241.78637695 C37 239.5625 37 239.5625 38 237.5625 C37.33856491 237.56472061 36.67712982 237.56694122 35.99565125 237.56922913 C-20.64556084 237.75048149 -20.64556084 237.75048149 -41.5 237.125 C-42.52838486 237.0955278 -42.52838486 237.0955278 -43.57754517 237.06546021 C-51.41740317 236.83299548 -59.19891502 236.3809712 -67 235.5625 C-67.27529541 236.30781982 -67.55059082 237.05313965 -67.83422852 237.82104492 C-68.90617891 240.34186817 -70.03001479 242.23742534 -71.65234375 244.42578125 C-72.17594482 245.13959961 -72.6995459 245.85341797 -73.23901367 246.58886719 C-74.0797644 247.72050293 -74.0797644 247.72050293 -74.9375 248.875 C-76.1213072 250.48977546 -77.30357167 252.10568291 -78.484375 253.72265625 C-79.07669922 254.5336377 -79.66902344 255.34461914 -80.27929688 256.18017578 C-82.80947809 259.68322746 -85.25463695 263.24145797 -87.6875 266.8125 C-92.27988195 273.54054642 -96.97876457 280.1837091 -101.73535156 286.79638672 C-103.07882799 288.67258527 -104.41146743 290.55614123 -105.7421875 292.44140625 C-106.19327881 293.07868652 -106.64437012 293.7159668 -107.10913086 294.37255859 C-107.97150677 295.59139167 -108.83181951 296.81168812 -109.68969727 298.03369141 C-113.61357316 303.56555365 -113.61357316 303.56555365 -116 305.5625 C-118.92633247 305.8873229 -121.57789521 306.02683068 -124.5 306 C-125.27214844 306.01998047 -126.04429687 306.03996094 -126.83984375 306.06054688 C-130.10906388 306.05771393 -132.40759341 305.99464734 -135.09375 304.03515625 C-137.48915831 297.49940858 -134.00460811 289.45316756 -132.125 283.0625 C-131.86847656 282.16402344 -131.61195313 281.26554687 -131.34765625 280.33984375 C-130.16191386 276.24635116 -128.91306479 272.2184031 -127.38671875 268.23828125 C-126.24705476 265.21736908 -125.3877973 262.38942805 -124.6875 259.25 C-123.4002363 253.89201756 -121.81210272 248.67902021 -120.125 243.4375 C-118.04029746 236.91945636 -116.0092505 230.39161758 -114.125 223.8125 C-113.9098877 223.08659668 -113.69477539 222.36069336 -113.47314453 221.61279297 C-110.98428791 212.77107322 -112.47924528 205.93608185 -115.125 197.3125 C-115.44267334 196.2505542 -115.76034668 195.1886084 -116.08764648 194.09448242 C-118.25110499 186.90040276 -120.50556445 179.73570209 -122.79711914 172.58154297 C-125.2142608 164.99491743 -127.38516078 157.34337919 -129.54296875 149.6796875 C-130.49137403 146.31987753 -131.4718345 142.97266197 -132.48828125 139.6328125 C-132.72216553 138.86018066 -132.9560498 138.08754883 -133.19702148 137.29150391 C-133.63488109 135.85194388 -134.07803336 134.41397819 -134.52758789 132.97802734 C-136.61045911 126.10067118 -136.61045911 126.10067118 -136 122.5625 C-133.62160554 119.74549254 -131.95915217 119.5573457 -128.28515625 119.09375 C-126.87781376 119.06732103 -125.47008127 119.05736752 -124.0625 119.0625 C-123.35931641 119.03414063 -122.65613281 119.00578125 -121.93164062 118.9765625 C-118.12303889 118.96228471 -116.25664705 119.35973063 -113.24609375 121.73828125 C-111.03791036 124.51483185 -108.97329622 127.30161795 -107 130.25 C-103.26680024 135.76275613 -99.41427521 141.17689747 -95.5 146.5625 C-90.98547111 152.78501807 -86.55425553 159.05138798 -82.19921875 165.38671875 C-79.7050383 168.98843937 -77.17211852 172.56061123 -74.625 176.125 C-74.20774658 176.70926758 -73.79049316 177.29353516 -73.3605957 177.89550781 C-71.68019829 180.24209828 -69.99416902 182.56992241 -68.2109375 184.83984375 C-67 186.5625 -67 186.5625 -67 188.5625 C-66.08276657 188.53744385 -65.16553314 188.5123877 -64.22050476 188.48657227 C-55.4434707 188.24746755 -46.66634826 188.0119635 -37.88911724 187.78019714 C-33.38004499 187.66101441 -28.87101416 187.54058776 -24.36206055 187.41699219 C-3.56950853 186.84798621 17.19780965 186.38238996 38 186.5625 C37.58073242 185.3151709 37.16146484 184.0678418 36.72949219 182.78271484 C33.12931913 172.06319236 29.61000751 161.33777099 26.5625 150.4453125 C26.3046875 149.52790283 26.046875 148.61049316 25.78125 147.6652832 C25.27595877 145.86060399 24.77561828 144.05452811 24.28125 142.24682617 C23.06723842 137.90417809 21.71535707 133.72537966 19.99609375 129.5546875 C17.94841447 124.58626853 16.46849981 119.55607287 15.0625 114.375 C12.98422277 106.90399139 10.71835855 99.56125479 8.2109375 92.22265625 C6.89853762 88.25582176 5.71840352 84.26447129 4.5625 80.25 C2.82352536 74.22155457 0.94212217 68.25789148 -1.0625 62.3125 C-4.06882063 53.38893188 -6.90919158 44.43745794 -9.47265625 35.375 C-9.73498047 34.44856689 -9.99730469 33.52213379 -10.26757812 32.56762695 C-10.78419961 30.73644496 -11.29741325 28.90429688 -11.80664062 27.07104492 C-12.945353 23.02182342 -14.14489888 19.05361528 -15.65234375 15.125 C-17.019956 11.50974675 -17.67558639 9.36267347 -17 5.5625 C-12.624624 -0.92380302 -7.11483015 -0.15706964 0 0 Z " fill="#797B7D" transform="translate(777,387.4375)"/>
<path d="M0 0 C0.47537972 1.42443936 0.95061116 2.8489282 1.42578125 4.2734375 C1.69044189 5.06669434 1.95510254 5.85995117 2.2277832 6.67724609 C5.20272881 15.62559655 5.46461665 22.34836098 3.0625 31.375 C2.88009766 32.09816406 2.69769531 32.82132813 2.50976562 33.56640625 C1.14560288 38.85439712 1.14560288 38.85439712 0 40 C-1.65946572 40.0747196 -3.32218919 40.07805128 -4.9831543 40.0534668 C-6.59479713 40.0328846 -6.59479713 40.0328846 -8.23899841 40.0118866 C-9.42212112 39.99120621 -10.60524384 39.97052582 -11.82421875 39.94921875 C-13.05225723 39.9310762 -14.28029572 39.91293365 -15.54554749 39.89424133 C-18.89578675 39.84243642 -22.2458441 39.78540898 -25.59593201 39.72491455 C-27.68563729 39.68753332 -29.77536715 39.65201874 -31.8651123 39.61694336 C-54.46339874 39.23337379 -77.02387218 38.42924778 -99.59892273 37.33195496 C-106.01758211 37.02727357 -112.43069773 36.84553045 -118.85522461 36.70727539 C-138.47418563 36.27909134 -158.0195459 34.86960524 -177.59326172 33.51660156 C-192.14112805 32.51259165 -206.68488552 31.58701985 -221.25 30.875 C-231.86508216 30.35342752 -242.44797174 29.70809359 -253.03417969 28.74731445 C-260.78562893 28.05804369 -268.54323569 27.60657388 -276.3125 27.18212891 C-289.63603074 26.45349832 -302.89173736 25.42556808 -316.16992188 24.11230469 C-330.09343297 22.75196165 -344.03654355 21.84539622 -358 21 C-357.505 19.515 -357.505 19.515 -357 18 C-355.19088135 17.92483154 -355.19088135 17.92483154 -353.34521484 17.84814453 C-323.13968654 16.59286125 -323.13968654 16.59286125 -292.96865845 14.71162415 C-284.66655623 14.12680249 -276.38120424 13.79084227 -268.0625 13.56640625 C-252.32714546 13.08953072 -236.64218518 12.0884338 -220.9375 11 C-204.41390877 9.85638459 -187.91944315 8.86203198 -171.36288452 8.35803223 C-159.32570518 7.97958439 -147.33360063 7.16936371 -135.32348633 6.30224609 C-123.71274313 5.47180337 -112.12446753 4.87382155 -100.48828125 4.53515625 C-83.69937145 4.03881645 -66.9742895 2.87127724 -50.22460938 1.65405273 C-33.4513458 0.44440196 -16.81900681 -0.29977089 0 0 Z " fill="#781743" transform="translate(588,580)"/>
<path d="M0 0 C0.495 1.485 0.495 1.485 1 3 C0.28199219 3.7115625 -0.43601563 4.423125 -1.17578125 5.15625 C-10.54870116 14.53905348 -19.06603187 24.49091363 -26.65625 35.375 C-27.0996875 35.91125 -27.543125 36.4475 -28 37 C-28.66 37 -29.32 37 -30 37 C-30.268125 37.7425 -30.53625 38.485 -30.8125 39.25 C-31.95276751 41.89061949 -33.09380306 43.85552844 -35 46 C-35.66 46 -36.32 46 -37 46 C-37.103125 46.556875 -37.20625 47.11375 -37.3125 47.6875 C-38.13324399 50.44818433 -39.46657154 52.5720716 -41 55 C-41.33 55.66 -41.66 56.32 -42 57 C-42.734375 54.83984375 -42.734375 54.83984375 -43 52 C-41.515625 49.37890625 -41.515625 49.37890625 -39.25 46.5625 C-38.84168945 46.0466333 -38.43337891 45.5307666 -38.01269531 44.99926758 C-37.13552093 43.89286932 -36.25216369 42.79135007 -35.36328125 41.69433594 C-34.01985872 40.02468114 -32.70913003 38.33423212 -31.40625 36.6328125 C-21.67651911 23.97333148 -11.29981774 11.29981774 0 0 Z " fill="#420E27" transform="translate(253,226)"/>
<path d="M0 0 C-2.90226436 1.62992025 -5.20164789 2.30160772 -8.51171875 2.5625 C-9.35154297 2.63726563 -10.19136719 2.71203125 -11.05664062 2.7890625 C-12.82219102 2.93062111 -14.58781748 3.07123391 -16.35351562 3.2109375 C-17.60745117 3.32308594 -17.60745117 3.32308594 -18.88671875 3.4375 C-19.65201904 3.49808594 -20.41731934 3.55867188 -21.20581055 3.62109375 C-21.79789307 3.74613281 -22.38997559 3.87117188 -23 4 C-23.33 4.66 -23.66 5.32 -24 6 C-28.29 5.67 -32.58 5.34 -37 5 C-37 4.34 -37 3.68 -37 3 C-32.5345443 2.56974169 -28.06880546 2.14258916 -23.6027832 1.71826172 C-22.08479875 1.57359931 -20.56689368 1.42810139 -19.04907227 1.28173828 C-16.86234749 1.07102144 -14.67535111 0.86335064 -12.48828125 0.65625 C-11.81412674 0.59062866 -11.13997223 0.52500732 -10.44538879 0.45739746 C-6.9501607 0.12952656 -3.51061841 -0.07086194 0 0 Z " fill="#513D49" transform="translate(709,1248)"/>
<path d="M0 0 C0.33 0.99 0.66 1.98 1 3 C-2.96 6.96 -6.92 10.92 -11 15 C-11.66 14.34 -12.32 13.68 -13 13 C-9.0580583 8.11950075 -4.88049925 3.9419417 0 0 Z " fill="#5D1A39" transform="translate(261,799)"/>
<path d="M0 0 C0.66 0 1.32 0 2 0 C0.33333333 3.33333333 -1.33333333 6.66666667 -3 10 C-3.75 7.8125 -3.75 7.8125 -4 5 C-2.1875 2.1875 -2.1875 2.1875 0 0 Z " fill="#4C0F2C" transform="translate(214,273)"/>
<path d="M0 0 C0.33 0.99 0.66 1.98 1 3 C-3.82142857 8.22321429 -3.82142857 8.22321429 -8 9 C-7.04270084 7.87411986 -6.08412105 6.7493285 -5.125 5.625 C-4.59132812 4.99851563 -4.05765625 4.37203125 -3.5078125 3.7265625 C-2.38567993 2.44163349 -1.20628025 1.20628025 0 0 Z " fill="#3E0A23" transform="translate(253,226)"/>
<path d="M0 0 C0.66 0 1.32 0 2 0 C1.35455571 3.48539917 -0.10134397 6.02819057 -2 9 C-3 6 -3 6 -1.5625 2.8125 C-1.046875 1.884375 -0.53125 0.95625 0 0 Z " fill="#692043" transform="translate(196,883)"/>
<path d="M0 0 C0.66 0.33 1.32 0.66 2 1 C0.6875 3.5 0.6875 3.5 -1 6 C-1.99 6 -2.98 6 -4 6 C-2.68 4.02 -1.36 2.04 0 0 Z " fill="#551936" transform="translate(206,866)"/>
</svg>
